<svg width="300" height="300" viewBox="0 0 300 300" fill="none" xmlns="http://www.w3.org/2000/svg">
<path d="M149.256 93C149.256 120.495 126.978 142.784 99.4976 142.784L149.256 93Z" fill="#98E8FA"/>
<path d="M201.005 143.281C173.524 143.281 151.247 120.993 151.247 93.4978L201.005 143.281Z" fill="#98E8FA"/>
<path d="M151.247 93.4978L201.005 143.281C201.005 115.787 178.727 93.4978 151.247 93.4978Z" fill="#98E8FA"/>
<path d="M99.4976 142.784L149.256 93C121.775 93 99.4976 115.289 99.4976 142.784Z" fill="#98E8FA"/>
<ellipse cx="151.246" cy="118.39" rx="24.8918" ry="24.8792" transform="rotate(-90 151.246 118.39)" fill="#98E8FA"/>
<path d="M99 156.723L148.758 206.506C148.758 179.012 126.481 156.723 99 156.723Z" fill="#98E8FA"/>
<path d="M152.242 207.502L202 157.719C174.519 157.719 152.242 180.008 152.242 207.502Z" fill="#98E8FA"/>
<path d="M202 157.719C202 185.213 179.723 207.502 152.242 207.502L202 157.719Z" fill="#98E8FA"/>
<path d="M150.251 207.502C122.77 207.502 100.493 185.213 100.493 157.719L150.251 207.502Z" fill="#98E8FA"/>
<ellipse cx="150.251" cy="183.108" rx="24.8918" ry="24.8792" transform="rotate(-90 150.251 183.108)" fill="#98E8FA"/>
</svg>
